<svg xmlns="http://www.w3.org/2000/svg" viewBox="0 0 900 520" role="img" aria-labelledby="title desc"><title id="title">Ilustración sobre interés compuesto</title><desc id="desc">Monedas, gráfica ascendente y calendario en estilo limpio.</desc><rect width="900" height="520" rx="42" fill="#fff7df"/><circle cx="155" cy="148" r="82" fill="#fef3c7"/><circle cx="738" cy="142" r="70" fill="#ede9fe"/><rect x="122" y="312" width="115" height="95" rx="20" fill="#fcd34d"/><rect x="259" y="272" width="115" height="135" rx="20" fill="#93c5fd"/><rect x="396" y="220" width="115" height="187" rx="20" fill="#a7f3d0"/><rect x="533" y="156" width="115" height="251" rx="20" fill="#c4b5fd"/><path d="M156 252 C250 226 302 237 382 188 C462 139 540 123 665 82" fill="none" stroke="#6d38f5" stroke-width="18" stroke-linecap="round"/><path d="M626 82h49v49" fill="none" stroke="#6d38f5" stroke-width="18" stroke-linecap="round" stroke-linejoin="round"/><circle cx="199" cy="148" r="42" fill="#fff" stroke="#f59e0b" stroke-width="12"/><text x="199" y="164" text-anchor="middle" font-family="Arial, sans-serif" font-size="48" font-weight="900" fill="#b45309">€</text><rect x="678" y="250" width="112" height="126" rx="24" fill="#fff" stroke="#dbe3ef" stroke-width="8"/><path d="M704 292h60M704 326h60" stroke="#64748b" stroke-width="10" stroke-linecap="round"/><text x="450" y="468" text-anchor="middle" font-family="Arial, sans-serif" font-size="34" font-weight="900" fill="#0f172a">Interés compuesto</text></svg>