<svg xmlns="http://www.w3.org/2000/svg" width="960" height="540" viewBox="0 0 960 540" role="img" aria-label="Media ponderada">
  <defs>
    <linearGradient id="bg" x1="0" y1="0" x2="1" y2="1">
      <stop offset="0%" stop-color="#f8fbff"/>
      <stop offset="100%" stop-color="#eef3ff"/>
    </linearGradient>
    <filter id="shadow" x="-20%" y="-20%" width="140%" height="140%">
      <feDropShadow dx="0" dy="18" stdDeviation="18" flood-color="#0f172a" flood-opacity=".10"/>
    </filter>
  </defs>
  <rect width="960" height="540" rx="42" fill="url(#bg)"/>
  <circle cx="820" cy="95" r="88" fill="#6d38f5" opacity=".08"/>
  <circle cx="105" cy="450" r="118" fill="#6d38f5" opacity=".07"/>
  <path d="M670 120c54 54 92 115 116 184" fill="none" stroke="#6d38f5" stroke-width="16" stroke-linecap="round" opacity=".22"/>
  <path d="M705 130c47 50 78 102 98 162" fill="none" stroke="#6d38f5" stroke-width="16" stroke-linecap="round" opacity=".55"/>
  <g filter="url(#shadow)">
    <rect x="105" y="95" width="220" height="245" rx="22" fill="#fff" stroke="#cbd5e1" stroke-width="4"/>
    <text x="145" y="170" font-family="Inter, Arial, sans-serif" font-size="46" font-weight="900" fill="#6d38f5">8,0</text>
    <path d="M145 220h125M145 258h95M145 296h145" stroke="#94a3b8" stroke-width="11" stroke-linecap="round"/>
    <path d="M248 150l34 34" stroke="#059669" stroke-width="11" stroke-linecap="round"/>
    <path d="M282 150l-34 34" stroke="#059669" stroke-width="11" stroke-linecap="round"/>
  </g>
  <rect x="420" y="128" width="390" height="236" rx="30" fill="#ffffff" stroke="#dbe3ef" stroke-width="3"/>
  <text x="460" y="205" font-family="Inter, Arial, sans-serif" font-size="42" font-weight="900" fill="#0f172a">Media ponderada</text>
  <text x="460" y="260" font-family="Inter, Arial, sans-serif" font-size="26" font-weight="600" fill="#64748b">Notas y pesos</text>
  <path d="M460 308h190" stroke="#6d38f5" stroke-width="12" stroke-linecap="round"/>
  <path d="M460 342h130" stroke="#cbd5e1" stroke-width="12" stroke-linecap="round"/>
</svg>
