<svg xmlns="http://www.w3.org/2000/svg" width="960" height="540" viewBox="0 0 960 540" role="img" aria-label="Baja voluntaria">
  <defs>
    <linearGradient id="bg" x1="0" y1="0" x2="1" y2="1">
      <stop offset="0%" stop-color="#f8fbff"/>
      <stop offset="100%" stop-color="#eef3ff"/>
    </linearGradient>
    <filter id="shadow" x="-20%" y="-20%" width="140%" height="140%">
      <feDropShadow dx="0" dy="18" stdDeviation="18" flood-color="#0f172a" flood-opacity=".10"/>
    </filter>
  </defs>
  <rect width="960" height="540" rx="42" fill="url(#bg)"/>
  <circle cx="820" cy="95" r="88" fill="#7c3aed" opacity=".08"/>
  <circle cx="105" cy="450" r="118" fill="#7c3aed" opacity=".07"/>
  <path d="M670 120c54 54 92 115 116 184" fill="none" stroke="#7c3aed" stroke-width="16" stroke-linecap="round" opacity=".22"/>
  <path d="M705 130c47 50 78 102 98 162" fill="none" stroke="#7c3aed" stroke-width="16" stroke-linecap="round" opacity=".55"/>
  <g filter="url(#shadow)">
    
        <rect x="120" y="80" width="155" height="270" rx="18" fill="#fff" stroke="#cbd5e1" stroke-width="4"/>
        <rect x="150" y="110" width="95" height="210" rx="12" fill="#7c3aed" opacity=".18"/>
        <path d="M245 110v210" stroke="#7c3aed" stroke-width="10" stroke-linecap="round"/>
        <circle cx="222" cy="220" r="10" fill="#7c3aed"/>
        <path d="M285 335h-185" stroke="#94a3b8" stroke-width="10" stroke-linecap="round"/>
        
  </g>
  <rect x="420" y="128" width="390" height="236" rx="30" fill="#ffffff" stroke="#dbe3ef" stroke-width="3"/>
  <text x="460" y="205" font-family="Inter, Arial, sans-serif" font-size="44" font-weight="900" fill="#0f172a">Baja voluntaria</text>
  <text x="460" y="260" font-family="Inter, Arial, sans-serif" font-size="26" font-weight="600" fill="#64748b">Preaviso y finiquito</text>
  <path d="M460 308h190" stroke="#7c3aed" stroke-width="12" stroke-linecap="round"/>
  <path d="M460 342h130" stroke="#cbd5e1" stroke-width="12" stroke-linecap="round"/>
</svg>